<svg width="20" height="20" viewBox="0 0 20 20" fill="none" xmlns="http://www.w3.org/2000/svg">
<path d="M19.9852 4.30856C19.9852 4.28571 20.001 4.26347 19.9999 4.24088L13.8966 10.1217L19.9926 15.8148C19.9962 15.7741 19.9852 15.7331 19.9852 15.6915V4.30856Z" fill="black"/>
<path d="M12.9649 11.0267L10.4734 13.4239C10.3473 13.5452 10.1845 13.606 10.0216 13.606C9.86203 13.606 9.70249 13.5478 9.57728 13.4311L7.09251 11.1157L0.956696 17.0299C1.10589 17.0836 1.26603 17.1252 1.43373 17.1252H18.6095C18.8585 17.1252 19.0921 17.0493 19.2951 16.9362L12.9649 11.0267Z" fill="black"/>
<path d="M10.0144 12.0569L19.3289 3.08434C19.118 2.95896 18.8725 2.87485 18.6094 2.87485H1.4337C1.09108 2.87485 0.777138 3.00788 0.532623 3.21077L10.0144 12.0569Z" fill="black"/>
<path d="M0 4.5271V15.6914C0 15.8195 0.0294565 15.9431 0.0614329 16.0612L6.12113 10.2258L0 4.5271Z" fill="black"/>
</svg>
